<svg xmlns="http://www.w3.org/2000/svg" viewBox="0 0 784 442" width="784" height="442"><path fill="#FFFFFF" fill-rule="evenodd" d="M436.59,419.43C423.64,414.68 418.56,402.31 424.58,390.21C428.81,381.72 437.56,374.64 455.12,365.50C472.48,356.46 478.42,351.63 479.54,345.66C480.10,342.65 479.84,341.26 478.32,339.22C472.35,331.24 467.07,330.19 426.50,329.00C396.99,328.13 382.88,327.17 352.50,323.98C328.04,321.41 315.41,324.39 304.92,335.20C302.78,337.41 298.79,343.13 296.04,347.93C293.01,353.23 288.77,358.82 285.23,362.20C276.04,370.97 269.95,373.42 247.23,377.49C234.45,379.78 227.87,381.75 208.00,389.24C189.87,396.07 173.49,386.67 173.62,369.50C173.73,354.78 184.95,343.94 211.45,332.95C221.97,328.58 235.83,319.20 241.32,312.72C248.46,304.31 251.42,297.65 251.42,290.00C251.43,265.23 219.54,254.82 168.50,262.92C161.90,263.97 148.40,266.27 138.50,268.05C122.83,270.86 118.24,271.28 103.00,271.31C86.72,271.35 84.94,271.16 77.49,268.71C62.82,263.87 56.00,256.15 56.00,244.37C56.00,230.36 63.17,224.04 90.48,214.00C103.06,209.37 108.26,206.27 111.04,201.71C115.69,194.08 112.16,186.75 101.52,181.95C88.36,176.03 76.11,175.47 58.66,180.00C42.10,184.30 34.64,183.74 28.17,177.70C20.94,170.96 19.19,157.42 24.18,146.78C30.24,133.84 45.24,122.58 65.00,116.13C79.12,111.52 89.76,111.59 111.50,116.41C133.07,121.20 144.03,114.93 156.01,90.93C165.21,72.51 171.59,62.44 178.55,55.34C187.88,45.82 195.04,43.64 200.85,48.53C207.18,53.86 208.50,63.18 207.00,92.19C206.64,99.21 206.85,102.23 207.76,103.15C209.71,105.12 211.24,102.91 217.22,89.50C228.61,63.95 242.52,48.00 253.43,48.00C258.10,48.00 263.06,52.42 266.05,59.24C268.15,64.05 268.41,66.58 269.10,88.88C270.18,123.82 271.88,140.08 276.01,154.84C282.72,178.89 296.24,187.99 314.24,180.59C332.19,173.21 345.23,154.29 360.49,113.50C370.81,85.90 375.47,77.44 386.15,66.93C411.58,41.89 467.31,25.02 538.00,20.97C581.16,18.49 612.85,24.08 621.74,35.73C625.38,40.49 625.91,47.49 623.08,53.34C618.52,62.75 605.23,71.99 585.47,79.49C574.57,83.63 566.32,86.28 521.50,100.04C492.06,109.08 480.00,115.26 480.00,121.30C480.00,122.61 480.95,124.55 482.10,125.60C483.94,127.26 486.45,127.58 501.85,128.13C516.50,128.66 520.47,129.13 525.19,130.93C540.83,136.89 541.01,150.47 525.60,161.47C518.05,166.85 512.20,169.54 493.50,176.21C474.90,182.84 467.83,186.29 464.10,190.54C457.58,197.96 461.11,203.47 478.71,213.32C507.57,229.48 540.28,240.56 571.00,244.57C586.12,246.55 615.85,246.05 628.97,243.60C667.86,236.33 698.62,217.58 710.29,194.02C712.93,188.69 713.56,186.13 713.83,179.52C714.13,172.27 713.89,170.97 711.29,166.02C702.00,148.30 675.39,145.94 659.53,161.43C653.74,167.08 651.85,171.98 653.94,175.88C655.91,179.58 659.53,179.60 665.30,175.96C671.97,171.74 676.36,171.56 679.63,175.36C682.38,178.55 682.57,180.71 680.53,185.59C675.19,198.36 658.33,207.86 642.94,206.76C625.72,205.53 614.26,193.24 613.20,174.86C611.78,150.29 632.49,126.67 663.55,117.45C674.41,114.23 692.83,113.07 703.55,114.94C738.11,120.95 761.20,145.77 762.77,178.55C763.15,186.61 762.83,190.27 761.13,197.05C752.53,231.45 718.56,263.74 675.50,278.44C671.10,279.94 656.46,284.02 642.97,287.51C616.23,294.42 606.21,297.95 595.50,304.24C576.61,315.34 566.56,334.43 568.53,355.51C570.64,377.98 557.59,397.05 536.50,402.33C533.20,403.16 525.04,404.35 518.36,404.97C503.90,406.31 494.34,408.48 479.41,413.81C459.52,420.91 445.61,422.73 436.59,419.43Z M190.83,188.98C197.65,186.04 203.01,180.31 203.70,175.23C205.93,158.54 172.89,151.91 159.25,166.32C150.16,175.92 154.97,187.26 169.72,190.97C175.20,192.35 185.19,191.41 190.83,188.98Z"/></svg>